<?xml version="1.0" encoding="UTF-8" standalone="no"?>
<!DOCTYPE svg PUBLIC "-//W3C//DTD SVG 1.1//EN" "http://www.w3.org/Graphics/SVG/1.1/DTD/svg11.dtd">
<svg width="100%" height="100%" viewBox="0 0 1080 640" version="1.1" xmlns="http://www.w3.org/2000/svg" xmlns:xlink="http://www.w3.org/1999/xlink" xml:space="preserve" xmlns:serif="http://www.serif.com/" style="fill-rule:evenodd;clip-rule:evenodd;stroke-linejoin:round;stroke-miterlimit:2;">
    <g id="wic_455.svg" transform="matrix(5.33333,0,0,5.33333,256,256)">
        <g transform="matrix(1,0,0,1,-48,-48)">
            <g>
                <path d="M84,12L12,12L12,63L24,63L24,84L42,63L84,63L84,12ZM78,18L78,57L39,57L30,69L30,57L18,57L18,18L78,18Z" style="fill-rule:nonzero;"/>
                <path d="M48,32.592L57.546,23.046L61.788,27.288L52.242,36.834L61.788,46.38L57.546,50.622L48,41.076L38.454,50.622L34.212,46.38L43.758,36.834L34.212,27.288L38.454,23.046L48,32.592Z" style="fill-rule:nonzero;"/>
            </g>
        </g>
    </g>
    <g id="wic_59.svg" transform="matrix(5.33333,0,0,5.33333,824,256)">
        <g transform="matrix(1,0,0,1,-48,-48)">
            <g>
                <path d="M84,12L12,12L12,63L24,63L24,84L42,63L84,63L84,12ZM78,18L78,57L39,57L30,69L30,57L18,57L18,18L78,18Z" style="fill-rule:nonzero;"/>
                <path d="M41.637,51.687L41.64,51.69L67.113,26.22L62.868,21.975L41.637,43.209L33.132,34.704L28.89,38.946L41.634,51.69L41.637,51.687Z" style="fill-rule:nonzero;"/>
            </g>
        </g>
    </g>
    <g id="wic_2378.svg" transform="matrix(5.33333,0,0,5.33333,540,384)">
        <g transform="matrix(1,0,0,1,-48,-48)">
            <rect x="0" y="0" width="96" height="96" style="fill:none;"/>
            <path d="M77,76.707L77,84.076C77,88.535 74.042,92 69.583,92L41.924,92C37.551,92 34,88.449 34,84.076L34,75.859L23.311,58.718L17.931,53.337C14.047,49.453 14.047,43.147 17.931,39.263C21.797,35.397 28.063,35.379 31.95,39.209L32.024,39.276C32.057,29.88 32.114,13.944 32.114,13.952C32.114,8.459 36.573,4 42.066,4C47.558,4 52.017,8.459 52.017,13.952L52.017,23.276L52.048,23.276C55.187,23.276 57.988,24.732 59.813,27.005C60.531,26.839 61.28,26.752 62.048,26.752C65.592,26.752 68.706,28.609 70.469,31.401C70.646,31.391 70.837,31.386 71.048,31.386C76.541,31.386 81,35.845 81,41.338L81,68.5C81,71.81 79.471,74.874 77,76.707ZM72,37.502L72,50.607C72,52.263 70.656,53.607 69,53.607C67.344,53.607 66,52.263 66,50.607L66,36.703C66,36.343 65.952,35.994 65.862,35.663C65.405,33.986 63.869,32.752 62.048,32.752L61.989,32.752C61.996,32.91 62,33.068 62,33.228L62,45.972C62,47.628 60.656,48.972 59,48.972C57.344,48.972 56,47.628 56,45.972L56,33.228C56,32.655 55.879,32.11 55.659,31.619C55.041,30.239 53.657,29.276 52.048,29.276L52.017,29.276L52.017,41.662C52.017,43.318 50.673,44.662 49.017,44.662C47.362,44.662 46.017,43.318 46.017,41.662L46.017,27.533C45.994,27.318 45.994,27.101 46.017,26.888L46.017,13.952C46.017,11.771 44.247,10 42.066,10C39.885,10 38.114,11.771 38.114,13.952L38.114,13.962L38,46.011C38.009,46.744 37.75,47.482 37.218,48.067C36.102,49.291 34.203,49.379 32.98,48.264L27.863,43.602C27.828,43.571 27.795,43.539 27.762,43.506C26.22,41.963 23.715,41.963 22.173,43.506C20.631,45.048 20.631,47.552 22.173,49.094L27.381,54.302C27.677,54.521 27.938,54.797 28.144,55.128L39.546,73.413C39.883,73.954 40.027,74.561 39.996,75.153C39.999,75.206 40,75.26 40,75.313L40,84.076C40,85.138 40.862,86 41.924,86L69.583,86C70.565,86 71,85.057 71,84.076L71,75C71,73.718 71.806,72.622 72.939,72.193C72.984,72.165 73.031,72.138 73.079,72.112C74.31,71.434 75,70.004 75,68.5L75,41.338C75,39.485 73.722,37.928 72,37.502Z" style="fill:rgb(49,79,120);"/>
        </g>
    </g>
</svg>
